<svg width="864" height="88" viewBox="0 0 864 88" fill="none" xmlns="http://www.w3.org/2000/svg">
<path d="M75.8438 36C74.125 16.1562 59.5938 4.90625 39.4375 4.90625C17.875 4.90625 0.84375 19.2812 0.84375 46C0.84375 72.6016 17.4063 87.0937 39.4375 87.0937C62.875 87.0937 74.75 70.8437 75.8438 57.25L53.8125 57.0937C52.7188 63.9297 47.875 68.1875 39.9063 68.1875C29.3203 68.1875 23.1875 60.6875 23.1875 46C23.1875 32.0937 29.125 23.8125 40.0625 23.8125C48.4219 23.8125 53.1875 28.7344 53.8125 36H75.8438ZM114.916 87.0937C134.447 87.0937 146.01 74.5937 146.01 56.1563C146.01 37.7187 134.447 25.2188 114.916 25.2188C95.3848 25.2188 83.8223 37.7187 83.8223 56.1563C83.8223 74.5937 95.3848 87.0937 114.916 87.0937ZM115.072 71.1562C109.291 71.1562 105.854 65.4141 105.854 56C105.854 46.5859 109.291 40.8437 115.072 40.8437C120.541 40.8437 123.979 46.5859 123.979 56C123.979 65.4141 120.541 71.1562 115.072 71.1562ZM183.666 87.0937C203.197 87.0937 214.76 74.5937 214.76 56.1563C214.76 37.7187 203.197 25.2188 183.666 25.2188C164.135 25.2188 152.572 37.7187 152.572 56.1563C152.572 74.5937 164.135 87.0937 183.666 87.0937ZM183.822 71.1562C178.041 71.1562 174.604 65.4141 174.604 56C174.604 46.5859 178.041 40.8437 183.822 40.8437C189.291 40.8437 192.729 46.5859 192.729 56C192.729 65.4141 189.291 71.1562 183.822 71.1562ZM223.51 86H245.072V68.9687L248.314 64.8672L260.541 86H285.229L264.213 52.2891L284.604 26H260.385L245.854 46.1563H245.072V6H223.51V86ZM290.219 86H311.781V26H290.219V86ZM301 19.75C306.859 19.75 311.625 15.3359 311.625 9.90625C311.625 4.47656 306.859 0.0625 301 0.0625C295.141 0.0625 290.375 4.47656 290.375 9.90625C290.375 15.3359 295.141 19.75 301 19.75ZM351.518 87.0937C368.158 87.0937 378.861 79.125 380.893 66.625H361.205C359.955 70.0234 356.4 71.9375 351.986 71.9375C345.58 71.9375 341.83 67.7187 341.83 61.9375V61H380.893V56C380.893 36.8984 369.174 25.2188 351.049 25.2188C332.455 25.2188 320.58 37.5625 320.58 56.1563C320.58 75.5703 332.299 87.0937 351.518 87.0937ZM341.83 49.125C341.947 43.9297 346.244 40.375 351.518 40.375C356.869 40.375 360.932 43.9687 361.049 49.125H341.83ZM411.293 86H448.949C466.332 86 477.074 76.5078 477.074 63.3437C477.074 52.0547 468.754 44.6719 458.48 44.2812V43.5C467.738 41.6641 473.949 34.8281 473.949 26C473.949 13.8125 464.262 6 445.98 6H411.293V86ZM433.012 68.6563V51.7812H443.48C450.082 51.7812 454.105 54.9062 454.105 60.5312C454.105 65.8828 450.473 68.6563 443.168 68.6563H433.012ZM433.012 38.3437V23.0312H442.23C447.621 23.0312 451.605 25.7656 451.605 30.6875C451.605 35.6094 447.621 38.3437 441.918 38.3437H433.012ZM501.801 86.9375C509.613 86.9375 515.512 84.2812 519.145 77.5625H519.613V86H539.77V44.9062C539.77 33.8125 529.262 25.2188 512.113 25.2188C494.184 25.2188 485.355 34.5937 484.613 45.5312H504.457C504.965 41.8203 507.699 40.0625 511.801 40.0625C515.551 40.0625 518.207 41.7812 518.207 44.9062V45.0625C518.207 48.5391 514.379 49.6328 504.301 50.375C491.918 51.2734 482.27 56.2734 482.27 69.4375C482.27 81.3906 490.316 86.9375 501.801 86.9375ZM508.832 73.3437C505.16 73.3437 502.582 71.5469 502.582 68.1875C502.582 65.1016 504.77 62.7187 509.77 61.9375C513.207 61.3906 516.098 60.6875 518.363 59.75V64.75C518.363 70.2188 513.715 73.3437 508.832 73.3437ZM571.635 52.25C571.674 46.3125 575.033 42.7188 580.385 42.7188C585.814 42.7188 589.018 46.3125 588.979 52.25V86H610.541V47.7187C610.58 34.6719 602.338 25.2188 589.604 25.2188C580.775 25.2188 573.783 29.8281 571.166 37.4062H570.541V26H550.072V86H571.635V52.25ZM642.748 52.25C642.787 46.3125 646.146 42.7188 651.498 42.7188C656.928 42.7188 660.131 46.3125 660.092 52.25V86H681.654V47.7187C681.693 34.6719 673.451 25.2188 660.717 25.2188C651.889 25.2188 644.896 29.8281 642.279 37.4062H641.654V26H621.186V86H642.748V52.25ZM721.049 87.0937C737.689 87.0937 748.393 79.125 750.424 66.625H730.736C729.486 70.0234 725.932 71.9375 721.518 71.9375C715.111 71.9375 711.361 67.7187 711.361 61.9375V61H750.424V56C750.424 36.8984 738.705 25.2188 720.58 25.2188C701.986 25.2188 690.111 37.5625 690.111 56.1563C690.111 75.5703 701.83 87.0937 721.049 87.0937ZM711.361 49.125C711.479 43.9297 715.775 40.375 721.049 40.375C726.4 40.375 730.463 43.9687 730.58 49.125H711.361ZM759.223 86H780.785V54.75C780.785 47.875 785.512 43.3437 791.879 43.3437C794.105 43.3437 797.699 43.6953 799.848 44.4375V26.0391C798.129 25.5312 796.254 25.2188 794.379 25.2188C787.973 25.2188 782.973 28.9687 780.785 37.4062H780.16V26H759.223V86ZM861.762 45.5312C861.215 32.8359 850.668 25.2188 833.324 25.2188C816.176 25.2188 805.59 32.25 805.668 44.75C805.59 54.2031 811.723 60.2578 823.949 62.4062L834.574 64.2812C839.262 65.1406 841.371 66.3906 841.449 68.6563C841.371 71.1562 838.52 72.5625 834.574 72.5625C829.691 72.5625 826.254 70.4531 825.668 66.625H804.262C805.434 78.9297 816.059 87.0937 834.418 87.0937C851.02 87.0937 863.246 79.0078 863.324 66.1562C863.246 57.2891 857.309 52.1328 845.043 49.9062L832.855 47.7187C828.285 46.8984 826.996 45.2578 827.074 43.5C826.996 41 830.082 39.5938 833.793 39.5938C838.051 39.5938 841.605 41.8594 841.918 45.5312H861.762Z" fill="#0B2239"/>
</svg>
