<svg width="385" height="39" viewBox="0 0 385 39" fill="none" xmlns="http://www.w3.org/2000/svg">
<g opacity="0.3">
<path d="M0.522727 0.90909V30H3.81818V7.89773H4.10227L13.1932 30H16.375L25.4659 7.89773H25.75V30H29.0455V0.90909H24.8409L14.9545 25.0568H14.6136L4.72727 0.90909H0.522727ZM42.0746 30.5114C45.8814 30.5114 47.87 28.4659 48.5518 27.0455H48.7223V30H52.0746V15.625C52.0746 8.69318 46.7905 7.89773 44.0064 7.89773C40.7109 7.89773 36.9609 9.03409 35.2564 13.0114L38.4382 14.1477C39.1768 12.5568 40.924 10.8523 44.12 10.8523C47.2024 10.8523 48.7223 12.4858 48.7223 15.2841V15.3977C48.7223 17.017 47.0746 16.875 43.0973 17.3864C39.049 17.9119 34.6314 18.8068 34.6314 23.8068C34.6314 28.0682 37.9268 30.5114 42.0746 30.5114ZM42.5859 27.5C39.9155 27.5 37.9837 26.3068 37.9837 23.9773C37.9837 21.4205 40.3132 20.625 42.9268 20.2841C44.3473 20.1136 48.1541 19.7159 48.7223 19.0341V22.1023C48.7223 24.8295 46.5632 27.5 42.5859 27.5ZM66.4318 30.4545C70.6364 30.4545 72.0568 27.8409 72.7955 26.6477H73.1932V30H76.4318V0.90909H73.0795V11.6477H72.7955C72.0568 10.5114 70.75 7.89773 66.4886 7.89773C60.9773 7.89773 57.1705 12.2727 57.1705 19.1477C57.1705 26.0795 60.9773 30.4545 66.4318 30.4545ZM66.8864 27.4432C62.6818 27.4432 60.5227 23.75 60.5227 19.0909C60.5227 14.4886 62.625 10.9091 66.8864 10.9091C70.9773 10.9091 73.1364 14.2045 73.1364 19.0909C73.1364 24.0341 70.9205 27.4432 66.8864 27.4432ZM92.1847 30.4545C96.6165 30.4545 99.8551 28.2386 100.878 24.9432L97.6392 24.0341C96.7869 26.3068 94.8125 27.4432 92.1847 27.4432C88.25 27.4432 85.5369 24.9006 85.3807 20.2273H101.219V18.8068C101.219 10.6818 96.3892 7.89773 91.8438 7.89773C85.9347 7.89773 82.0142 12.5568 82.0142 19.2614C82.0142 25.9659 85.8778 30.4545 92.1847 30.4545ZM85.3807 17.3295C85.608 13.9347 88.0085 10.9091 91.8438 10.9091C95.4801 10.9091 97.8097 13.6364 97.8097 17.3295H85.3807ZM118.023 30H121.261V26.6477H121.659C122.398 27.8409 123.818 30.4545 128.023 30.4545C133.477 30.4545 137.284 26.0795 137.284 19.1477C137.284 12.2727 133.477 7.89773 127.966 7.89773C123.705 7.89773 122.398 10.5114 121.659 11.6477H121.375V0.90909H118.023V30ZM121.318 19.0909C121.318 14.2045 123.477 10.9091 127.568 10.9091C131.83 10.9091 133.932 14.4886 133.932 19.0909C133.932 23.75 131.773 27.4432 127.568 27.4432C123.534 27.4432 121.318 24.0341 121.318 19.0909ZM143.79 38.1818C146.815 38.1818 148.946 36.5767 150.21 33.1818L159.5 8.23864L155.835 8.18182L149.812 25.5682H149.585L143.562 8.18182H139.926L147.994 30.1136L147.369 31.8182C146.148 35.142 144.642 35.4545 142.199 34.8295L141.347 37.7841C141.688 37.9545 142.653 38.1818 143.79 38.1818ZM191.947 37.6705C194.844 37.6705 198.538 36.8182 200.299 36.0795L199.504 33.4659C198.481 33.8068 195.185 34.9432 192.06 34.9432C182.344 34.9432 177.174 29.4886 177.174 19.8295C177.174 10.3409 182.458 4.65909 191.379 4.65909C200.413 4.65909 204.674 11.0227 204.674 17.3864C204.674 23.8636 203.992 26.7614 201.094 26.7614C199.39 26.7614 198.481 25.3409 198.481 23.75V10.9091H195.469V12.5H195.299C194.901 11.25 192.685 10.1705 189.844 10.4545C185.583 10.9091 182.344 14.4318 182.344 19.5455C182.344 24.9432 184.901 29.0909 189.844 29.2614C193.083 29.375 194.788 27.7841 195.469 26.1364H195.64C195.981 28.5795 199.049 29.4318 201.038 29.4318C207.06 29.4318 207.629 22.9545 207.629 17.4432C207.629 9.65909 202.174 1.98864 191.549 1.98864C180.583 1.98864 174.049 8.63636 174.049 19.7159C174.049 31.1932 180.356 37.6705 191.947 37.6705ZM190.299 26.3636C186.606 26.3636 185.299 23.0114 185.299 19.375C185.299 16.0795 187.174 13.2386 190.413 13.2386C193.822 13.2386 195.64 14.6023 195.64 19.375C195.64 24.0909 194.106 26.3636 190.299 26.3636ZM219.067 30.5114C222.874 30.5114 224.862 28.4659 225.544 27.0455H225.714V30H229.067V15.625C229.067 8.69318 223.783 7.89773 220.999 7.89773C217.703 7.89773 213.953 9.03409 212.249 13.0114L215.43 14.1477C216.169 12.5568 217.916 10.8523 221.112 10.8523C224.195 10.8523 225.714 12.4858 225.714 15.2841V15.3977C225.714 17.017 224.067 16.875 220.089 17.3864C216.041 17.9119 211.624 18.8068 211.624 23.8068C211.624 28.0682 214.919 30.5114 219.067 30.5114ZM219.578 27.5C216.908 27.5 214.976 26.3068 214.976 23.9773C214.976 21.4205 217.305 20.625 219.919 20.2841C221.339 20.1136 225.146 19.7159 225.714 19.0341V22.1023C225.714 24.8295 223.555 27.5 219.578 27.5ZM243.424 30.4545C247.629 30.4545 249.049 27.8409 249.788 26.6477H250.185V30H253.424V0.90909H250.072V11.6477H249.788C249.049 10.5114 247.742 7.89773 243.481 7.89773C237.969 7.89773 234.163 12.2727 234.163 19.1477C234.163 26.0795 237.969 30.4545 243.424 30.4545ZM243.879 27.4432C239.674 27.4432 237.515 23.75 237.515 19.0909C237.515 14.4886 239.617 10.9091 243.879 10.9091C247.969 10.9091 250.129 14.2045 250.129 19.0909C250.129 24.0341 247.913 27.4432 243.879 27.4432ZM266.45 30.5114C270.256 30.5114 272.245 28.4659 272.927 27.0455H273.097V30H276.45V15.625C276.45 8.69318 271.165 7.89773 268.381 7.89773C265.086 7.89773 261.336 9.03409 259.631 13.0114L262.813 14.1477C263.552 12.5568 265.299 10.8523 268.495 10.8523C271.577 10.8523 273.097 12.4858 273.097 15.2841V15.3977C273.097 17.017 271.45 16.875 267.472 17.3864C263.424 17.9119 259.006 18.8068 259.006 23.8068C259.006 28.0682 262.302 30.5114 266.45 30.5114ZM266.961 27.5C264.29 27.5 262.359 26.3068 262.359 23.9773C262.359 21.4205 264.688 20.625 267.302 20.2841C268.722 20.1136 272.529 19.7159 273.097 19.0341V22.1023C273.097 24.8295 270.938 27.5 266.961 27.5ZM282.568 30H285.92V16.1932C285.92 13.2386 288.25 11.0795 291.432 11.0795C292.327 11.0795 293.25 11.25 293.477 11.3068V7.89773C293.094 7.86932 292.213 7.84091 291.716 7.84091C289.102 7.84091 286.83 9.31818 286.034 11.4773H285.807V8.18182H282.568V30ZM312.906 13.0682C311.854 9.97159 309.496 7.89773 305.178 7.89773C300.576 7.89773 297.167 10.5114 297.167 14.2045C297.167 17.2159 298.957 19.233 302.962 20.1705L306.599 21.0227C308.8 21.5341 309.837 22.5852 309.837 24.0909C309.837 25.9659 307.849 27.5 304.724 27.5C301.982 27.5 300.263 26.321 299.667 23.9773L296.485 24.7727C297.266 28.4801 300.32 30.4545 304.781 30.4545C309.852 30.4545 313.303 27.6847 313.303 23.9205C313.303 20.8807 311.4 18.9631 307.508 18.0114L304.269 17.2159C301.684 16.5767 300.519 15.7102 300.519 14.0341C300.519 12.1591 302.508 10.7955 305.178 10.7955C308.104 10.7955 309.312 12.4148 309.894 13.9205L312.906 13.0682ZM321.702 16.875C321.702 13.0682 324.131 10.9091 327.44 10.9091C330.594 10.9091 332.497 12.8977 332.497 16.3636V30H335.849V16.1364C335.849 10.5256 332.866 7.89773 328.406 7.89773C324.969 7.89773 323.009 9.33239 321.986 11.5909H321.702V0.90909H318.349V30H321.702V16.875ZM350.221 30.4545C354.425 30.4545 355.846 27.8409 356.585 26.6477H356.982V30H360.221V0.90909H356.869V11.6477H356.585C355.846 10.5114 354.539 7.89773 350.278 7.89773C344.766 7.89773 340.96 12.2727 340.96 19.1477C340.96 26.0795 344.766 30.4545 350.221 30.4545ZM350.675 27.4432C346.471 27.4432 344.312 23.75 344.312 19.0909C344.312 14.4886 346.414 10.9091 350.675 10.9091C354.766 10.9091 356.925 14.2045 356.925 19.0909C356.925 24.0341 354.71 27.4432 350.675 27.4432ZM366.826 30H370.178V21.8324L372.522 19.6591L380.69 30H384.951L375.05 17.5L384.269 8.18182H380.121L370.576 17.8977H370.178V0.90909H366.826V30Z" fill="#0B2239"/>
<path d="M172.117 37.9545H385.519V40.6818H172.117V37.9545Z" fill="#0B2239"/>
</g>
<a href="https://dribbble.com/adarshdk">
<rect fill="black" fill-opacity="0" x="175.117" y="-0.204544" width="213.402" height="48.4091"/>
</a>
</svg>
