<svg width="75" height="31" viewBox="0 0 75 31" fill="none" xmlns="http://www.w3.org/2000/svg">
<path opacity="0.3" d="M3.71591 0.90909H0.0227273L10.7045 30H14.3409L25.0227 0.90909H21.3295L12.6932 25.3977H12.3523L3.71591 0.90909ZM50.5199 0.90909H46.9972L39.7244 5.73864V9.31818L46.8267 4.60227H46.9972V30H50.5199V0.90909ZM59.6676 30.2273C61.0739 30.2273 62.2244 29.0767 62.2244 27.6705C62.2244 26.2642 61.0739 25.1136 59.6676 25.1136C58.2614 25.1136 57.1108 26.2642 57.1108 27.6705C57.1108 29.0767 58.2614 30.2273 59.6676 30.2273ZM74.9339 0.90909H71.4112L64.1385 5.73864V9.31818L71.2408 4.60227H71.4112V30H74.9339V0.90909Z" fill="#0B2239"/>
</svg>
